HIERARCHY
ROOT SpineBase
{
  OFFSET 0.000000 0.000000 0.000000
  CHANNELS 6 Xposition Yposition Zposition Zrotation Xrotation Yrotation
  JOINT SpineMid
  {
    OFFSET -0.000000 31.964438 0.000000
    CHANNELS 3 Zrotation Xrotation Yrotation
    JOINT SpineShoulder
    {
      OFFSET 0.065355 23.669165 -0.781107
      CHANNELS 3 Zrotation Xrotation Yrotation
      JOINT Neck
      {
        OFFSET 0.072606 7.795095 -0.575671
        CHANNELS 3 Zrotation Xrotation Yrotation
        JOINT Head
        {
          OFFSET 2.648369 14.328350 -0.958387
          CHANNELS 3 Zrotation Xrotation Yrotation
          End Site
          {
            OFFSET 0 0 0
          }
        }
      }
      JOINT ShoulderLeft
      {
        OFFSET -15.479369 -3.060037 -7.303605
        CHANNELS 3 Zrotation Xrotation Yrotation
        JOINT ElbowLeft
        {
          OFFSET -5.712470 -26.102804 -4.079595
          CHANNELS 3 Zrotation Xrotation Yrotation
          JOINT WristLeft
          {
            OFFSET 1.544268 -23.489150 -5.793854
            CHANNELS 3 Zrotation Xrotation Yrotation
            JOINT HandLeft
            {
              OFFSET 0.957689 -8.108720 0.214845
              CHANNELS 3 Zrotation Xrotation Yrotation
              JOINT HandTipLeft
              {
                OFFSET 1.199407 -7.576033 -1.546036
                CHANNELS 3 Zrotation Xrotation Yrotation
                End Site
                {
                  OFFSET 0 0 0
                }
              }
              JOINT ThumbLeft
              {
                OFFSET 3.337587 -0.052854 1.401439
                CHANNELS 3 Zrotation Xrotation Yrotation
                End Site
                {
                  OFFSET 0 0 0
                }
              }
            }
          }
        }
      }
      JOINT ShoulderRight
      {
        OFFSET 17.169490 -4.875047 6.570151
        CHANNELS 3 Zrotation Xrotation Yrotation
        JOINT ElbowRight
        {
          OFFSET 3.256038 -29.672135 3.993983
          CHANNELS 3 Zrotation Xrotation Yrotation
          JOINT WristRight
          {
            OFFSET 2.375233 -23.903710 -1.248714
            CHANNELS 3 Zrotation Xrotation Yrotation
            JOINT HandRight
            {
              OFFSET -0.614395 -0.740975 0.304668
              CHANNELS 3 Zrotation Xrotation Yrotation
              JOINT HandTipRight
              {
                OFFSET 0.493766 -7.237118 0.333394
                CHANNELS 3 Zrotation Xrotation Yrotation
                End Site
                {
                  OFFSET 0 0 0
                }
              }
              JOINT ThumbRight
              {
                OFFSET 2.717782 0.194676 -1.678789
                CHANNELS 3 Zrotation Xrotation Yrotation
                End Site
                {
                  OFFSET 0 0 0
                }
              }
            }
          }
        }
      }
    }
  }
  JOINT HipLeft
  {
    OFFSET -6.557660 0.667586 -6.490117
    CHANNELS 3 Zrotation Xrotation Yrotation
    JOINT KneeLeft
    {
      OFFSET -2.866966 -33.435095 5.007344
      CHANNELS 3 Zrotation Xrotation Yrotation
      JOINT AnkleLeft
      {
        OFFSET -0.356120 -35.176536 8.722171
        CHANNELS 3 Zrotation Xrotation Yrotation
        JOINT FootLeft
        {
          OFFSET 3.756847 -4.214703 -10.839931
          CHANNELS 3 Zrotation Xrotation Yrotation
          End Site
          {
            OFFSET 0 0 0
          }
        }
      }
    }
  }
  JOINT HipRight
  {
    OFFSET 8.169046 0.247225 -0.905272
    CHANNELS 3 Zrotation Xrotation Yrotation
    JOINT KneeRight
    {
      OFFSET 2.349483 -35.743279 -3.193232
      CHANNELS 3 Zrotation Xrotation Yrotation
      JOINT AnkleRight
      {
        OFFSET -1.185462 -36.338033 12.659040
        CHANNELS 3 Zrotation Xrotation Yrotation
        JOINT FootRight
        {
          OFFSET 4.031030 -3.698207 -11.733043
          CHANNELS 3 Zrotation Xrotation Yrotation
          End Site
          {
            OFFSET 0 0 0
          }
        }
      }
    }
  }
}
MOTION
Frames: 5
Frame Time: 0.033333
-81.436597 75.925709 369.050232 0.000000 0.000000 -20.768354 -0.000000 0.000000 20.768354 -0.000000 0.000000 0.000000 -0.000000 0.000000 0.000000 0.000000 0.000000 0.000000 -0.000000 0.000000 0.000000 -0.000000 0.000000 0.000000 -0.000000 0.000000 0.000000 -0.000000 0.000000 0.000000 0.000000 0.000000 0.000000 0.000000 0.000000 0.000000 -0.000000 0.000000 0.000000 -0.000000 0.000000 0.000000 -0.000000 0.000000 0.000000 -0.000000 0.000000 0.000000 0.000000 0.000000 0.000000 0.000000 0.000000 0.000000 -0.000000 0.000000 20.768354 -0.000000 0.000000 0.000000 -0.000000 0.000000 0.000000 0.000000 0.000000 0.000000 -0.000000 0.000000 20.768354 -0.000000 0.000000 0.000000 -0.000000 0.000000 0.000000 0.000000 0.000000 0.000000
-81.612438 75.959278 368.893574 0.182825 0.093351 -21.006913 -0.137210 -0.152685 21.006582 -0.000000 0.000000 0.000000 -0.000000 0.000000 0.000000 0.000000 0.000000 0.000000 -0.000000 0.000000 0.000000 0.144791 -0.923290 -0.095431 0.850605 -3.460832 -0.371158 -3.763327 0.266166 0.560429 0.000000 0.000000 0.000000 0.000000 0.000000 0.000000 -0.000000 0.000000 0.000000 0.938246 1.973608 0.130730 22.936315 22.546831 -20.546471 -19.118569 -24.695463 10.612423 0.000000 0.000000 0.000000 0.000000 0.000000 0.000000 -0.137210 -0.152685 21.006582 -0.000000 0.000000 0.000000 1.215154 2.891365 -0.538237 0.000000 0.000000 0.000000 -0.137210 -0.152685 21.006582 -0.000000 0.000000 0.000000 -0.000000 0.000000 0.000000 0.000000 0.000000 0.000000
-81.784271 75.988491 368.754928 0.339941 0.174560 -21.183801 -0.253894 -0.285604 21.182650 -0.000000 0.000000 0.000000 -0.000000 0.000000 0.000000 0.000000 0.000000 0.000000 0.334174 -0.966290 0.162380 -0.107704 -0.759838 -0.327662 1.405150 -6.005598 -0.634059 -6.535859 0.629979 1.235486 0.000000 0.000000 0.000000 0.000000 0.000000 0.000000 1.149775 0.627593 0.217262 0.587955 3.129337 0.014850 31.531752 26.564837 -29.059443 -26.567960 -30.084280 11.302998 0.000000 0.000000 0.000000 0.000000 0.000000 0.000000 -0.253894 -0.285604 21.182650 -0.000000 0.000000 0.000000 1.988345 4.707081 -0.890151 0.000000 0.000000 0.000000 -0.253894 -0.285604 21.182650 -0.000000 0.000000 0.000000 -0.000000 0.000000 0.000000 0.000000 0.000000 0.000000
-81.952097 76.013348 368.634296 0.471312 0.243610 -21.299321 -0.350639 -0.398163 21.297101 -0.000000 0.000000 0.000000 -0.000000 0.000000 0.000000 0.000000 0.000000 0.000000 0.445040 -1.374377 0.237218 -0.197404 -1.033089 -0.448872 1.684030 -7.681163 -0.823438 -8.415791 1.055721 1.874446 0.000000 0.000000 0.000000 0.000000 0.000000 0.000000 1.653581 1.010321 0.318755 0.733630 4.337999 -0.010225 34.293959 27.149784 -32.355278 -30.357139 -30.367317 11.012899 0.000000 0.000000 0.000000 0.000000 0.000000 0.000000 -0.350639 -0.398163 21.297101 0.580917 -0.822316 0.156266 1.820801 6.461519 -1.237312 0.000000 0.000000 0.000000 -0.350639 -0.398163 21.297101 -0.000000 0.000000 0.000000 -0.000000 0.000000 0.000000 0.000000 0.000000 0.000000
-82.115915 76.033849 368.531677 0.576912 0.300486 -21.353708 -0.427909 -0.489913 21.350365 -0.000000 0.000000 0.000000 -0.000000 0.000000 0.000000 0.000000 0.000000 0.000000 0.517105 -1.729182 0.306461 -0.308725 -1.237233 -0.541492 1.696936 -8.526280 -0.958183 -9.487208 1.517817 2.382203 0.000000 0.000000 0.000000 0.000000 0.000000 0.000000 2.104662 1.438491 0.414625 0.784012 5.307545 -0.045136 34.616391 26.838706 -33.564718 -32.062193 -29.478371 10.994534 0.000000 0.000000 0.000000 0.000000 0.000000 0.000000 -0.427909 -0.489913 21.350365 0.743155 -0.980385 0.200143 1.709360 6.776953 -1.261801 0.000000 0.000000 0.000000 0.444434 -0.575334 21.262577 -0.423152 -0.369968 0.247742 -0.355547 0.767378 -0.146843 0.000000 0.000000 0.000000
